<svg xmlns="http://www.w3.org/2000/svg" xmlns:xlink="http://www.w3.org/1999/xlink" version="1.1" x="0px" y="0px" viewBox="0 0 100 125" enable-background="new 0 0 100 100" xml:space="preserve"><g><g><path fill="#000000" d="M96.91,81.977c0.167,0.024,0.172,0.295,0.112,0.441C96.921,82.303,96.854,82.154,96.91,81.977z"/></g></g><g><path fill="rgba(75, 77, 88, 1)" d="M94.973,42.48c0.265,2.059-0.747,4.512-1.017,7.117c-0.482,4.667,1.187,9.018,0.254,12.456   c-0.675,2.499-3.933,4.874-5.337,8.387c-0.896,2.239-0.827,4.486-1.779,6.102c-1.307,2.216-4.759,3.827-7.117,5.844   c-4.5,3.854-6.898,9.087-14.233,9.66c-1.057-0.033-0.052-0.165,0-0.508c4.976-1.945,4.788-5.702,6.354-11.947   c0.936-3.729,3.373-7.249,1.779-11.438c-1.074-2.822-4.508-3.455-5.593-6.354c-0.512-1.371-0.088-3.014-0.508-4.321   c-1.619-5.038-8.474-4.509-13.979-5.846c-4.578-1.108-8.625-3.186-12.455-1.017c-1.611,0.915-2.473,3.027-3.812,4.321   c-2.547,2.469-9.247,5.197-9.658,9.659c-0.103,1.115,0.33,2.717,0.254,4.575c-0.183,4.422-1.914,7.313-1.271,10.166   c0.554,2.453,2.809,4.25,4.32,6.355c1.516,2.108,3.036,3.996,3.813,6.354c-9.417-0.648-11.88-8.507-17.538-13.473   c-3.498-3.068-6.504-3.959-8.134-8.641c-0.831-2.393-0.875-6.241-1.524-9.659c-0.305-1.609-0.545-3.075-1.017-4.575   c-1.012-3.207-2.549-7.302-1.271-11.692c0.503-1.724,1.808-3.035,2.542-4.83c1.047-2.557,0.791-5.589,1.525-8.134   c0.564-1.952,2.532-5.053,3.812-6.354c1-1.012,2.797-1.624,4.067-2.796c3.279-3.02,4.46-7.537,7.117-9.404   c1.815-1.273,5.356-1.706,8.642-2.796c4.626-1.53,7.504-4.57,12.964-4.575c2.354,0,5.386,0.884,8.388,1.016   c2.575,0.114,5.261-0.157,7.117,0.254c2.657,0.595,5.353,3.297,8.389,4.575c3.987,1.685,6.19,1.284,8.642,4.32   c0.696,0.865,1.068,1.899,1.778,2.797c2.38,3.011,6.825,4.532,8.389,8.134c0.79,1.827,0.845,4.725,1.779,7.116   C92.103,37.048,94.638,39.872,94.973,42.48z"/><g><g><!--sunglasses @ night--><path fill="rgba(85, 172, 238, 0.88)" d="M71.74,71.568c0.351,0.85-0.744,0.255-0.562,0.936c-0.232,5.225-3.632,9.881-9.186,7.875     c-3.05-1.103-7.408-5.985-8.436-9c-0.475-1.391-0.253-2.776-0.75-3.749c-0.965-0.708-2.349-0.545-3.562-0.186     c-0.495,1.115-0.189,2.261-0.562,3.562c-1.018,3.551-6.233,9.422-10.497,9.936c-4.497,0.538-7.935-2.731-8.061-8.438     c0.032-0.53-1.226,0.227-0.938-0.562c-0.378-0.939,0.853-0.271,0.938-0.748c0.322-8.758,11.824-5.459,20.62-5.436     c4.381,0.011,8.96-1.05,13.122-0.752c3.787,0.271,7.082,1.688,7.124,5.625C70.745,71.439,71.883,70.863,71.74,71.568z"/></g></g></g></svg>